<svg id="Livello_2" data-name="Livello 2" xmlns="http://www.w3.org/2000/svg" viewBox="0 0 64 64"><defs><style>.cls-1{font-size:13.23px;font-family:Montserrat-Bold, Montserrat;font-weight:700;}</style></defs><title>Tavola disegno 1</title><text class="cls-1" transform="matrix(0.19, -0.98, 0.98, 0.19, 9.77, 32.05)">S</text><text class="cls-1" transform="matrix(0.56, -0.83, 0.83, 0.56, 10.89, 24.31)">H</text><text class="cls-1" transform="matrix(0.86, -0.51, 0.51, 0.86, 16.18, 15.97)">O</text><text class="cls-1" transform="translate(24.32 10.18) rotate(-0.03)">W</text><text class="cls-1" transform="translate(38.8 11.17) rotate(23.03)"> </text><text class="cls-1" transform="translate(42.43 12.74) rotate(33.39)"> </text><text class="cls-1" transform="translate(45.66 14.5) rotate(48.53)">T</text><text class="cls-1" transform="matrix(0.32, 0.95, -0.95, 0.32, 50.96, 19.92)">H</text><text class="cls-1" transform="translate(54.11 29.35) rotate(94.58)">E</text><text class="cls-1" transform="matrix(-0.35, 0.94, -0.94, -0.35, 53.09, 37.93)"> </text><text class="cls-1" transform="translate(51.68 41.61) rotate(121)"> </text><text class="cls-1" transform="matrix(-0.81, 0.59, -0.59, -0.81, 51.06, 45.1)">W</text><text class="cls-1" transform="translate(39.72 53.16) rotate(174.35)">O</text><text class="cls-1" transform="matrix(-0.94, -0.33, 0.33, -0.94, 29.43, 54.22)">R</text><text class="cls-1" transform="translate(20.85 51.38) rotate(-137.45)">K</text><text class="cls-1" transform="matrix(-0.51, -0.86, 0.86, -0.51, 14.15, 44.7)"> </text><text class="cls-1" transform="matrix(-0.34, -0.94, 0.94, -0.34, 12.16, 41.34)">∙</text></svg>