<svg id="Livello_1" data-name="Livello 1" xmlns="http://www.w3.org/2000/svg" viewBox="0 0 512 512"><title>Tavola disegno 1</title><path d="M165.1,171.37l58.21.66h.28l30.63,53v13h-26.6l-47-27.08a3,3,0,0,0-1.39-.39,3.09,3.09,0,0,0-2.44,1.51l-15,26H56.2V171.37Z"/><path d="M231.05,41.74l54.52,94.45,29.11,50.43-30.63,53.07h0l-11.29,6.53-13.26-23h0V168.86c-.07-1.65-1.06-2.57-2.91-2.77h-30L173.69,74.87l-.07-.13,57.43-33Z"/><path d="M373.94,94.94l57.29,33.2-54.52,94.45L347.54,273H286.22l-11.29-6.53,13.27-23,47-27.13c1.39-.92,1.72-2.17.93-3.89l-15.05-26h0l52.8-91.35.07-.13Z"/><path d="M456.2,278.9V345H347.27l-58.21.66h-.25l-30.63-53.49V279h26.61l47,27.35a3,3,0,0,0,1.39.4,3.07,3.07,0,0,0,2.44-1.53L350.68,279H456.13l.07-.06Z"/><path d="M226,244l11.29,6.14-13.27,23h0l-47,27.13c-1.38.93-1.71,2.18-.92,3.9l15,26h0l-52.68,91.29-.06.13-57.3-33.2L135.66,294l29.17-50.63L226,244Z"/><path d="M239.63,270.78l13.27,23v54.32c.06,1.65,1,2.57,2.9,2.77h30l52.81,91.22.06.13-57.42,33-54.52-94.46-29.11-50.43h0l30.63-53.07h0l11.35-6.53Z"/><path d="M260.16,234.47l9.16,17,.07.06a2.6,2.6,0,0,0,2.31,1.39,3.55,3.55,0,0,0,1.38-.26l5.55-3.24h0l-9.84,17-.06.07a2.73,2.73,0,0,0,.92,3.7l5.54,2.9H255.66a2.75,2.75,0,0,0-2.76,2.63V282l-9.73-16.89-.07-.07a2.59,2.59,0,0,0-2.3-1.38,3.55,3.55,0,0,0-1.38.26l-5.52,3.22h0l9.73-16.88.07-.07a2.72,2.72,0,0,0-.92-3.68l-5.52-3.22h19.45s2.51-.79,2.79-2.44l.66-6.41Z"/></svg>