<svg xmlns="http://www.w3.org/2000/svg" viewBox="0 0 1080 1080"><defs><style>.cls-1{font-size:100px;font-family:Poppins-SemiBold, Poppins;font-weight:600;}.cls-1,.cls-2{fill:#fff;}</style></defs><title>Tavola disegno 44</title><g id="sfondi"><rect width="1080" height="1080"/></g><g id="sagome"><text class="cls-1" transform="translate(75.3 1016.36)">molto</text><path class="cls-2" d="M951,868.17q6.25-6.24,17.45-6.25h32.5v14h-30.6q-6.49,0-9.95,3.3t-3.45,9a12,12,0,0,0,3.45,9q3.45,3.36,9.95,3.35h30.6v14h-30.6q-6.49,0-9.95,3.3t-3.45,9q0,5.8,3.45,9.15t9.95,3.35h30.6v14h-55.4v-14h6.7a18.68,18.68,0,0,1-5.5-6.95,21.72,21.72,0,0,1-2-9.35,24.1,24.1,0,0,1,2.75-11.6,19.33,19.33,0,0,1,7.85-7.9,20.06,20.06,0,0,1-7.7-7.85,22.37,22.37,0,0,1-2.9-11.15Q944.71,874.42,951,868.17Z"/><path class="cls-2" d="M998.26,838.42a25.43,25.43,0,0,1-10,10.05,30,30,0,0,1-15,3.65,29.51,29.51,0,0,1-15-3.75,26.06,26.06,0,0,1-10.05-10.25,31.39,31.39,0,0,1,0-29,26.13,26.13,0,0,1,10.05-10.25,29.51,29.51,0,0,1,15-3.75,28.92,28.92,0,0,1,15,3.85,26.63,26.63,0,0,1,10,10.4,30.21,30.21,0,0,1,3.55,14.65A29.11,29.11,0,0,1,998.26,838.42Zm-10.5-21.55a13.47,13.47,0,0,0-5.55-5.35,18.7,18.7,0,0,0-9-2q-7.89,0-12.15,4.15a13.66,13.66,0,0,0-4.25,10.15,13.33,13.33,0,0,0,4.25,10q4.26,4.05,12.15,4T985.36,834a13,13,0,0,0,4.25-10A14.52,14.52,0,0,0,987.76,816.87Z"/><path class="cls-2" d="M926.91,770.82h74v14h-74Z"/><path class="cls-2" d="M998.26,708a25.56,25.56,0,0,1-10,10.05,30.13,30.13,0,0,1-15,3.64,29.51,29.51,0,0,1-15-3.75,26.06,26.06,0,0,1-10.05-10.25,31.39,31.39,0,0,1,0-29,26.13,26.13,0,0,1,10.05-10.25,29.51,29.51,0,0,1,15-3.75,28.83,28.83,0,0,1,15,3.86,26.54,26.54,0,0,1,10,10.39,30.21,30.21,0,0,1,3.55,14.65A29.17,29.17,0,0,1,998.26,708Zm-10.5-21.56a13.47,13.47,0,0,0-5.55-5.35,18.7,18.7,0,0,0-9-2q-7.89,0-12.15,4.16a13.62,13.62,0,0,0-4.25,10.14,13.32,13.32,0,0,0,4.25,10.05q4.26,4,12.15,4.06t12.15-3.95a13,13,0,0,0,4.25-10A14.52,14.52,0,0,0,987.76,686.47Z"/><path class="cls-2" d="M163.82,286.5c3.11-3.12,7.47-4.68,13.05-4.68h24.31v10.47H178.29c-3.24,0-5.72.83-7.44,2.47a8.88,8.88,0,0,0-2.58,6.73,9,9,0,0,0,2.58,6.77q2.58,2.5,7.44,2.51h22.89v10.47H178.29q-4.86,0-7.44,2.47a8.87,8.87,0,0,0-2.58,6.73,9.09,9.09,0,0,0,2.58,6.84c1.72,1.68,4.2,2.51,7.44,2.51h22.89v10.47H159.74V339.79h5a14,14,0,0,1-4.11-5.2,16.18,16.18,0,0,1-1.5-7,18,18,0,0,1,2.06-8.68,14.47,14.47,0,0,1,5.87-5.91,15,15,0,0,1-5.76-5.87,16.79,16.79,0,0,1-2.17-8.34Q159.14,291.16,163.82,286.5Z"/><path class="cls-2" d="M199.2,264.24a19.08,19.08,0,0,1-7.52,7.52,22.52,22.52,0,0,1-11.22,2.73,22,22,0,0,1-11.22-2.8,19.52,19.52,0,0,1-7.52-7.67,23.52,23.52,0,0,1,0-21.69,19.52,19.52,0,0,1,7.52-7.67,22,22,0,0,1,11.22-2.8,21.59,21.59,0,0,1,11.22,2.88,20,20,0,0,1,7.52,7.77,22.64,22.64,0,0,1,2.65,11A21.82,21.82,0,0,1,199.2,264.24Zm-7.86-16.12a10,10,0,0,0-4.15-4,14.06,14.06,0,0,0-6.73-1.49q-5.91,0-9.09,3.1a10.2,10.2,0,0,0-3.18,7.59,10,10,0,0,0,3.18,7.52q3.18,3,9.09,3t9.09-2.95a9.75,9.75,0,0,0,3.18-7.45A10.87,10.87,0,0,0,191.34,248.12Z"/><path class="cls-2" d="M145.83,213.68h55.35v10.47H145.83Z"/><path class="cls-2" d="M168.34,191.17h20a4,4,0,0,0,3-1,5,5,0,0,0,.93-3.41v-4.86h8.83v6.58q0,13.25-12.87,13.24h-20v4.94h-8.6v-4.94H149.49V191.17h10.25v-9.28h8.6Z"/><path class="cls-2" d="M199.2,166.71a19.06,19.06,0,0,1-7.52,7.51A22.41,22.41,0,0,1,180.46,177a22,22,0,0,1-11.22-2.8,19.46,19.46,0,0,1-7.52-7.67,23.52,23.52,0,0,1,0-21.69,19.52,19.52,0,0,1,7.52-7.67,22,22,0,0,1,11.22-2.8,21.59,21.59,0,0,1,11.22,2.88A19.93,19.93,0,0,1,199.2,145a22.64,22.64,0,0,1,2.65,11A21.82,21.82,0,0,1,199.2,166.71Zm-7.86-16.12a10,10,0,0,0-4.15-4,14,14,0,0,0-6.73-1.5q-5.91,0-9.09,3.1a10.21,10.21,0,0,0-3.18,7.6,10,10,0,0,0,3.18,7.51q3.18,3,9.09,3t9.09-3a9.72,9.72,0,0,0,3.18-7.44A10.81,10.81,0,0,0,191.34,150.59Z"/><path class="cls-2" d="M160.94,110.57a17.11,17.11,0,0,1-1.87-8.11,18.12,18.12,0,0,1,2.62-9.62,18.39,18.39,0,0,1,7.44-6.8,23.9,23.9,0,0,1,11.18-2.51A24.41,24.41,0,0,1,191.57,86a19,19,0,0,1,7.59,6.8,17.82,17.82,0,0,1,2.69,9.62,17.17,17.17,0,0,1-1.83,8.11,15.72,15.72,0,0,1-4.75,5.57h5.91v10.48H145.83V116.14h20A14.88,14.88,0,0,1,160.94,110.57Zm12.9-14.81a10.62,10.62,0,0,0-4.15,4,10.78,10.78,0,0,0-1.42,5.42,10.38,10.38,0,0,0,1.46,5.35,10.82,10.82,0,0,0,4.22,4,14.61,14.61,0,0,0,13,0,10.82,10.82,0,0,0,4.22-4,10.57,10.57,0,0,0,0-10.77,11.1,11.1,0,0,0-4.27-4,13.39,13.39,0,0,0-6.58-1.53A13,13,0,0,0,173.84,95.76Z"/><path class="cls-2" d="M183.6,37.68V68a10.27,10.27,0,0,0,7-3.14,9.65,9.65,0,0,0,2.55-6.8,8.56,8.56,0,0,0-5-8.31V38.43A18.85,18.85,0,0,1,198,45.31a20.06,20.06,0,0,1,3.85,12.49,21.58,21.58,0,0,1-2.65,10.73,18.69,18.69,0,0,1-7.52,7.41,23,23,0,0,1-11.22,2.66A23.5,23.5,0,0,1,169.17,76a18.22,18.22,0,0,1-7.48-7.33,21.92,21.92,0,0,1-2.62-10.85,21.81,21.81,0,0,1,2.54-10.58A17.9,17.9,0,0,1,168.83,40a21.84,21.84,0,0,1,10.73-2.58A24.65,24.65,0,0,1,183.6,37.68Zm-7,10.55a8.32,8.32,0,0,0-6.47,2.91,10.36,10.36,0,0,0-2.43,7A9.48,9.48,0,0,0,170,64.65a10.35,10.35,0,0,0,6.54,3.25Z"/><path class="cls-2" d="M163.82-5.18c3.11-3,7.47-4.56,13.05-4.56h24.31V.73H178.29q-4.93,0-7.59,2.47A8.74,8.74,0,0,0,168,9.93a9,9,0,0,0,2.66,6.84c1.77,1.68,4.3,2.51,7.59,2.51h22.89V29.75H159.74V19.28h5.16a14.51,14.51,0,0,1-4.22-5.35,16.43,16.43,0,0,1-1.54-7.14Q159.14-.62,163.82-5.18Z"/><path class="cls-2" d="M472.07-10.22q4.68-4.68,13.05-4.68h24.31V-4.43H486.54c-3.24,0-5.72.83-7.44,2.47a8.88,8.88,0,0,0-2.58,6.73,9,9,0,0,0,2.58,6.77q2.58,2.51,7.44,2.51h22.89V24.52H486.54q-4.86,0-7.44,2.47a8.87,8.87,0,0,0-2.58,6.73,9.09,9.09,0,0,0,2.58,6.84c1.72,1.68,4.2,2.51,7.44,2.51h22.89V53.54H468V43.07h5a14,14,0,0,1-4.11-5.2,16.18,16.18,0,0,1-1.5-7,18,18,0,0,1,2.06-8.68,14.47,14.47,0,0,1,5.87-5.91,15,15,0,0,1-5.76-5.87,16.79,16.79,0,0,1-2.17-8.34Q467.39-5.55,472.07-10.22Z"/><path class="cls-2" d="M807.31,557.84q3.48-3.48,9.72-3.48h18.13v7.8H818.09a7.73,7.73,0,0,0-5.54,1.84,6.6,6.6,0,0,0-1.93,5,6.7,6.7,0,0,0,1.93,5.05,7.65,7.65,0,0,0,5.54,1.87h17.07v7.8H818.09a7.69,7.69,0,0,0-5.54,1.84,6.6,6.6,0,0,0-1.93,5,6.74,6.74,0,0,0,1.93,5.1,7.61,7.61,0,0,0,5.54,1.87h17.07v7.81H804.27v-7.81H808a10.34,10.34,0,0,1-3.06-3.88,12,12,0,0,1-1.12-5.21,13.44,13.44,0,0,1,1.53-6.47,10.79,10.79,0,0,1,4.38-4.4,11.23,11.23,0,0,1-4.29-4.38,13.37,13.37,0,0,1,1.87-15.39Z"/><path class="cls-2" d="M833.68,541.26a14.32,14.32,0,0,1-5.61,5.6,16.72,16.72,0,0,1-8.36,2,16.34,16.34,0,0,1-8.36-2.09,14.52,14.52,0,0,1-5.61-5.71,17.5,17.5,0,0,1,0-16.17,14.55,14.55,0,0,1,5.61-5.72,16.44,16.44,0,0,1,8.36-2.09,16.08,16.08,0,0,1,8.36,2.15,14.82,14.82,0,0,1,5.61,5.8,16.85,16.85,0,0,1,2,8.17A16.28,16.28,0,0,1,833.68,541.26Zm-5.86-12a7.41,7.41,0,0,0-3.09-3,10.37,10.37,0,0,0-5-1.12q-4.4,0-6.77,2.31a7.62,7.62,0,0,0-2.37,5.66,7.45,7.45,0,0,0,2.37,5.61,9.46,9.46,0,0,0,6.77,2.26q4.41,0,6.78-2.21a7.22,7.22,0,0,0,2.37-5.54A8.08,8.08,0,0,0,827.82,529.24Z"/><path class="cls-2" d="M793.9,503.56h41.26v7.81H793.9Z"/><path class="cls-2" d="M810.68,486.78h14.94a3,3,0,0,0,2.26-.75,3.73,3.73,0,0,0,.7-2.54v-3.62h6.58v4.9q0,9.87-9.59,9.87H810.68v3.68h-6.41v-3.68h-7.64v-7.86h7.64v-6.91h6.41Z"/><path class="cls-2" d="M833.68,468.55a14.19,14.19,0,0,1-5.61,5.6,16.73,16.73,0,0,1-8.36,2,16.44,16.44,0,0,1-8.36-2.09,14.55,14.55,0,0,1-5.61-5.72,17.5,17.5,0,0,1,0-16.17,14.52,14.52,0,0,1,5.61-5.71,16.34,16.34,0,0,1,8.36-2.09,16.08,16.08,0,0,1,8.36,2.14,14.89,14.89,0,0,1,5.61,5.8,16.88,16.88,0,0,1,2,8.17A16.28,16.28,0,0,1,833.68,468.55Zm-5.86-12a7.48,7.48,0,0,0-3.09-3,10.49,10.49,0,0,0-5-1.12,9.31,9.31,0,0,0-6.77,2.32,7.6,7.6,0,0,0-2.37,5.66,7.41,7.41,0,0,0,2.37,5.6q2.37,2.26,6.77,2.26t6.78-2.2a7.26,7.26,0,0,0,2.37-5.55A8.14,8.14,0,0,0,827.82,456.53Z"/><path class="cls-2" d="M805.16,426.7a12.77,12.77,0,0,1-1.4-6.05,13.51,13.51,0,0,1,2-7.16,13.78,13.78,0,0,1,5.54-5.08,17.92,17.92,0,0,1,8.34-1.86,18.22,18.22,0,0,1,8.39,1.86,14.06,14.06,0,0,1,5.66,5.08,13.2,13.2,0,0,1,2,7.16,12.8,12.8,0,0,1-1.37,6.05,11.74,11.74,0,0,1-3.54,4.16h4.41v7.8H793.9v-7.8h14.88A11.26,11.26,0,0,1,805.16,426.7Zm9.62-11a8,8,0,0,0-3.1,3,8.16,8.16,0,0,0-1.06,4.05,7.72,7.72,0,0,0,1.09,4,8,8,0,0,0,3.15,3,10.8,10.8,0,0,0,9.7,0,8,8,0,0,0,3.15-3,7.85,7.85,0,0,0,0-8,8.36,8.36,0,0,0-3.17-3,10,10,0,0,0-4.91-1.14A9.68,9.68,0,0,0,814.78,415.66Z"/><path class="cls-2" d="M822.05,372.37V395a7.71,7.71,0,0,0,5.24-2.34,7.21,7.21,0,0,0,1.9-5.08,6.36,6.36,0,0,0-3.74-6.18v-8.42a14.1,14.1,0,0,1,7.34,5.12,15,15,0,0,1,2.87,9.32,16.11,16.11,0,0,1-2,8,13.93,13.93,0,0,1-5.61,5.52,17.13,17.13,0,0,1-8.36,2,17.5,17.5,0,0,1-8.42-1.95,13.71,13.71,0,0,1-5.57-5.47,17.48,17.48,0,0,1-.06-16,13.29,13.29,0,0,1,5.38-5.41,16.3,16.3,0,0,1,8-1.92A18.23,18.23,0,0,1,822.05,372.37Zm-5.24,7.86A6.2,6.2,0,0,0,812,382.4a7.73,7.73,0,0,0-1.81,5.19,7.09,7.09,0,0,0,1.75,4.88,7.68,7.68,0,0,0,4.88,2.42Z"/><path class="cls-2" d="M807.31,340.42Q810.79,337,817,337h18.13v7.8H818.09a8,8,0,0,0-5.66,1.84,6.55,6.55,0,0,0-2,5,6.69,6.69,0,0,0,2,5.1,7.92,7.92,0,0,0,5.66,1.87h17.07v7.81H804.27v-7.81h3.84a11,11,0,0,1-3.15-4,12.4,12.4,0,0,1-1.14-5.33A11.89,11.89,0,0,1,807.31,340.42Z"/><path class="cls-2" d="M822.05,301.11v22.58a7.62,7.62,0,0,0,5.24-2.34,7.19,7.19,0,0,0,1.9-5.07,6.37,6.37,0,0,0-3.74-6.19v-8.42a14.06,14.06,0,0,1,7.34,5.13,15,15,0,0,1,2.87,9.31,16.11,16.11,0,0,1-2,8,13.93,13.93,0,0,1-5.61,5.52,17.13,17.13,0,0,1-8.36,2,17.5,17.5,0,0,1-8.42-1.95,13.59,13.59,0,0,1-5.57-5.47,17.48,17.48,0,0,1-.06-16,13.35,13.35,0,0,1,5.38-5.41,16.3,16.3,0,0,1,8-1.92A18.23,18.23,0,0,1,822.05,301.11ZM816.81,309a6.17,6.17,0,0,0-4.82,2.18,7.68,7.68,0,0,0-1.81,5.18,7.08,7.08,0,0,0,1.75,4.88,7.74,7.74,0,0,0,4.88,2.43Z"/><path class="cls-2" d="M979.8,168a7.19,7.19,0,0,1,5.34-1.92h9.94v4.29h-9.36a4.18,4.18,0,0,0-3,1,3.6,3.6,0,0,0-1.06,2.75,3.66,3.66,0,0,0,1.06,2.77,4.18,4.18,0,0,0,3,1h9.36v4.29h-9.36a4.18,4.18,0,0,0-3,1,3.6,3.6,0,0,0-1.06,2.75,3.7,3.7,0,0,0,1.06,2.8,4.19,4.19,0,0,0,3,1h9.36v4.28h-17v-4.28h2a5.82,5.82,0,0,1-1.68-2.13,6.61,6.61,0,0,1-.61-2.86,7.36,7.36,0,0,1,.84-3.55,5.89,5.89,0,0,1,2.4-2.42,6.19,6.19,0,0,1-2.36-2.4,7.36,7.36,0,0,1,1-8.44Z"/><path class="cls-2" d="M994.27,158.86a7.84,7.84,0,0,1-3.07,3.08,9.29,9.29,0,0,1-4.59,1.12,9,9,0,0,1-4.59-1.15,8,8,0,0,1-3.08-3.14,9.65,9.65,0,0,1,0-8.87,8,8,0,0,1,3.08-3.14,9,9,0,0,1,4.59-1.14,8.9,8.9,0,0,1,4.59,1.17,8.18,8.18,0,0,1,3.07,3.19,9.17,9.17,0,0,1,1.09,4.48A8.84,8.84,0,0,1,994.27,158.86Zm-3.21-6.59a4.14,4.14,0,0,0-1.7-1.64,5.79,5.79,0,0,0-2.75-.61,5.14,5.14,0,0,0-3.72,1.27,4.17,4.17,0,0,0-1.3,3.11,4.05,4.05,0,0,0,1.3,3.07,6.25,6.25,0,0,0,7.43,0,4,4,0,0,0,1.31-3A4.42,4.42,0,0,0,991.06,152.27Z"/><path class="cls-2" d="M972.44,138.18h22.64v4.29H972.44Z"/><path class="cls-2" d="M981.65,129h8.2a1.65,1.65,0,0,0,1.24-.41,2,2,0,0,0,.38-1.39v-2h3.61v2.69q0,5.41-5.26,5.42h-8.17v2h-3.52v-2h-4.19V129h4.19v-3.79h3.52Z"/><path class="cls-2" d="M994.27,119A7.81,7.81,0,0,1,991.2,122a9.18,9.18,0,0,1-4.59,1.12A8.94,8.94,0,0,1,982,122a8,8,0,0,1-3.08-3.13,9.67,9.67,0,0,1,0-8.88,8,8,0,0,1,3.08-3.13,8.94,8.94,0,0,1,4.59-1.15,8.81,8.81,0,0,1,4.59,1.18,8.09,8.09,0,0,1,3.07,3.18,9.2,9.2,0,0,1,1.09,4.48A8.9,8.9,0,0,1,994.27,119Zm-3.21-6.6a4.12,4.12,0,0,0-1.7-1.63,5.67,5.67,0,0,0-2.75-.61,5.1,5.1,0,0,0-3.72,1.27,4.15,4.15,0,0,0-1.3,3.1,4.09,4.09,0,0,0,1.3,3.08,6.29,6.29,0,0,0,7.43,0,4,4,0,0,0,1.31-3A4.47,4.47,0,0,0,991.06,112.37Z"/><path class="cls-2" d="M978.62,96a7,7,0,0,1-.76-3.32,7.4,7.4,0,0,1,1.07-3.94A7.52,7.52,0,0,1,982,86a9.84,9.84,0,0,1,4.58-1,10,10,0,0,1,4.6,1,7.72,7.72,0,0,1,3.11,2.78,7.34,7.34,0,0,1,1.1,3.94,7,7,0,0,1-.75,3.32,6.66,6.66,0,0,1-1.94,2.28h2.41v4.28H972.44V98.29h8.17A6.33,6.33,0,0,1,978.62,96ZM983.9,90a4.43,4.43,0,0,0-1.7,1.65,4.38,4.38,0,0,0-.58,2.22,4.3,4.3,0,0,0,.6,2.19A4.38,4.38,0,0,0,984,97.66a5.93,5.93,0,0,0,5.32,0A4.51,4.51,0,0,0,991,96a4.29,4.29,0,0,0,.59-2.19A4.22,4.22,0,0,0,991,91.6,4.54,4.54,0,0,0,989.24,90a5.46,5.46,0,0,0-2.69-.63A5.3,5.3,0,0,0,983.9,90Z"/><path class="cls-2" d="M987.89,66.19V78.58a4.21,4.21,0,0,0,2.88-1.28,4,4,0,0,0,1-2.79,3.48,3.48,0,0,0-2-3.39V66.5a7.69,7.69,0,0,1,4,2.81,8.23,8.23,0,0,1,1.58,5.11,8.77,8.77,0,0,1-1.09,4.39,7.59,7.59,0,0,1-3.07,3,9.49,9.49,0,0,1-4.59,1.09A9.61,9.61,0,0,1,982,81.86a7.5,7.5,0,0,1-3.06-3,9,9,0,0,1-1.07-4.44,8.86,8.86,0,0,1,1-4.33,7.4,7.4,0,0,1,3-3,9,9,0,0,1,4.39-1.05A10.3,10.3,0,0,1,987.89,66.19ZM985,70.5a3.39,3.39,0,0,0-2.65,1.2,4.22,4.22,0,0,0-1,2.84,3.9,3.9,0,0,0,1,2.68A4.22,4.22,0,0,0,985,78.55Z"/><path class="cls-2" d="M979.8,48.66a7.33,7.33,0,0,1,5.34-1.87h9.94v4.29h-9.36a4.38,4.38,0,0,0-3.11,1,3.58,3.58,0,0,0-1.08,2.75,3.68,3.68,0,0,0,1.08,2.8,4.38,4.38,0,0,0,3.11,1h9.36V63h-17V58.66h2.11a6,6,0,0,1-1.73-2.18,6.9,6.9,0,0,1-.62-2.93A6.55,6.55,0,0,1,979.8,48.66Z"/><path class="cls-2" d="M987.89,27.09V39.48a4.21,4.21,0,0,0,2.88-1.28,4,4,0,0,0,1-2.79,3.48,3.48,0,0,0-2-3.39V27.4a7.64,7.64,0,0,1,4,2.81,8.23,8.23,0,0,1,1.58,5.11,8.8,8.8,0,0,1-1.09,4.39,7.59,7.59,0,0,1-3.07,3,10.31,10.31,0,0,1-9.21,0,7.41,7.41,0,0,1-3.06-3,9,9,0,0,1-1.07-4.44,8.86,8.86,0,0,1,1-4.33,7.4,7.4,0,0,1,3-3A9,9,0,0,1,986.24,27,10.3,10.3,0,0,1,987.89,27.09ZM985,31.4a3.39,3.39,0,0,0-2.65,1.2,4.22,4.22,0,0,0-1,2.84,3.9,3.9,0,0,0,1,2.68A4.22,4.22,0,0,0,985,39.45Z"/><path class="cls-2" d="M401.83,963.34a22.86,22.86,0,0,1,5.91-9.44,24.16,24.16,0,0,1,11.56-6.61,24.55,24.55,0,0,1,13.47.6,32,32,0,0,1,12.94,8.2,32.57,32.57,0,0,1,8.27,13,25.21,25.21,0,0,1,.75,13.61,23.72,23.72,0,0,1-6.55,11.63,22.85,22.85,0,0,1-9.4,5.94,21,21,0,0,1-9.76.78l5.59,5.59-9.9,9.9-52.33-52.33,9.9-9.9,18.88,18.88A20,20,0,0,1,401.83,963.34Zm26.2-1.81a14.16,14.16,0,0,0-7.74-.1,14.38,14.38,0,0,0-6.47,3.78,14,14,0,0,0-3.68,6.43,14.48,14.48,0,0,0,.18,7.82,19.47,19.47,0,0,0,12.3,12.3,14.48,14.48,0,0,0,7.82.18,14,14,0,0,0,6.43-3.68,13.84,13.84,0,0,0,3.71-6.54,14.79,14.79,0,0,0-.21-7.85,17.91,17.91,0,0,0-4.77-7.67A17.43,17.43,0,0,0,428,961.53Z"/><path class="cls-2" d="M591.78,929.74a22.91,22.91,0,0,1-2.52-10.85A24.14,24.14,0,0,1,592.73,906a24.68,24.68,0,0,1,9.93-9.13,32.13,32.13,0,0,1,14.94-3.38,32.67,32.67,0,0,1,15.06,3.32,25.25,25.25,0,0,1,10.17,9.08,23.71,23.71,0,0,1,3.63,12.84A23.13,23.13,0,0,1,644,929.63a21.08,21.08,0,0,1-6.34,7.46h7.9l0,14-74,.15,0-14,26.7-.06A20,20,0,0,1,591.78,929.74ZM609,909.9a14.21,14.21,0,0,0-5.54,5.41,14.57,14.57,0,0,0-1.89,7.26,14,14,0,0,0,2,7.14,14.43,14.43,0,0,0,5.66,5.39,19.49,19.49,0,0,0,17.4,0,14.49,14.49,0,0,0,5.64-5.41,14.14,14.14,0,0,0-.08-14.4,14.83,14.83,0,0,0-5.71-5.38,17.9,17.9,0,0,0-8.81-2A17.42,17.42,0,0,0,609,909.9Z"/><path class="cls-2" d="M916.18,704.3a23,23,0,0,1,9.45,5.89,24.29,24.29,0,0,1,6.64,11.54,24.67,24.67,0,0,1-.58,13.48,31.9,31.9,0,0,1-8.17,12.95,32.44,32.44,0,0,1-13,8.3,25.12,25.12,0,0,1-13.61.77,23.64,23.64,0,0,1-11.64-6.51,22.91,22.91,0,0,1-6-9.4,21,21,0,0,1-.8-9.75l-5.57,5.6L863,727.29l52.22-52.44,9.92,9.88-18.85,18.92A20.07,20.07,0,0,1,916.18,704.3ZM918,730.5a14.39,14.39,0,0,0,.09-7.75,14.53,14.53,0,0,0-3.8-6.46,13.93,13.93,0,0,0-6.44-3.66,14.48,14.48,0,0,0-7.82.19,19.47,19.47,0,0,0-12.27,12.33,14.34,14.34,0,0,0-.16,7.81,14.12,14.12,0,0,0,10.23,10.13,14.9,14.9,0,0,0,7.85-.23,17.87,17.87,0,0,0,7.67-4.79A17.38,17.38,0,0,0,918,730.5Z"/><path class="cls-2" d="M466.63,917.89a23,23,0,0,1-2.39,10.88,24.2,24.2,0,0,1-8.67,10.11,24.68,24.68,0,0,1-12.89,4,31.9,31.9,0,0,1-14.94-3.38A32.52,32.52,0,0,1,415.58,930a25.24,25.24,0,0,1-5.28-12.57,23.86,23.86,0,0,1,2.25-13.16,23,23,0,0,1,6.87-8.75,21,21,0,0,1,8.93-4l-7.14-3.39,6-12.65,66.86,31.71-6,12.65L464,908.38A20,20,0,0,1,466.63,917.89ZM442.56,928.4a14.24,14.24,0,0,0,12.15-8.24,13.94,13.94,0,0,0,1.3-7.3,14.5,14.5,0,0,0-2.79-7.3,19.45,19.45,0,0,0-15.72-7.45,14.38,14.38,0,0,0-7.42,2.45,14.11,14.11,0,0,0-4.83,5.63A13.91,13.91,0,0,0,424,913.6a14.78,14.78,0,0,0,2.83,7.32,17.87,17.87,0,0,0,7.08,5.62A17.39,17.39,0,0,0,442.56,928.4Z"/><path class="cls-2" d="M146.31,720.65a22.89,22.89,0,0,1,9.49,5.83,24.24,24.24,0,0,1,6.71,11.5,24.6,24.6,0,0,1-.48,13.47,32,32,0,0,1-8.09,13A32.61,32.61,0,0,1,141,772.85a25.16,25.16,0,0,1-13.61.86,23.64,23.64,0,0,1-11.68-6.44,23,23,0,0,1-6-9.35,21.17,21.17,0,0,1-.86-9.75l-5.54,5.63L93.3,744l51.87-52.78,10,9.81-18.71,19.05A20,20,0,0,1,146.31,720.65Zm2,26.18a14.24,14.24,0,0,0,0-7.74,14.58,14.58,0,0,0-3.84-6.44,14.1,14.1,0,0,0-6.47-3.62,14.47,14.47,0,0,0-7.81.25,19.52,19.52,0,0,0-12.2,12.41,14.51,14.51,0,0,0-.11,7.81,14.05,14.05,0,0,0,3.74,6.41,13.83,13.83,0,0,0,6.57,3.65,14.82,14.82,0,0,0,7.85-.28,17.89,17.89,0,0,0,7.63-4.84A17.42,17.42,0,0,0,148.34,746.83Z"/><path class="cls-2" d="M531.27,727.64a22.89,22.89,0,0,1,10.22,4.43,24.13,24.13,0,0,1,8.27,10.44,24.55,24.55,0,0,1,1.42,13.4,32,32,0,0,1-6.17,14,32.67,32.67,0,0,1-11.62,10.13A25.23,25.23,0,0,1,520,782.84a23.69,23.69,0,0,1-12.48-4.73,22.94,22.94,0,0,1-7.28-8.4,21.08,21.08,0,0,1-2.23-9.54l-4.69,6.36-11.27-8.3L526,698.66l11.27,8.3-15.84,21.5A20,20,0,0,1,531.27,727.64ZM537,753.27a14.29,14.29,0,0,0-1.05-7.67,14.52,14.52,0,0,0-4.71-5.83,14,14,0,0,0-6.92-2.67,14.38,14.38,0,0,0-7.69,1.35,17.63,17.63,0,0,0-6.82,5.78,17.88,17.88,0,0,0-3.51,8.22,14.51,14.51,0,0,0,1,7.76,14.06,14.06,0,0,0,4.6,5.81,13.88,13.88,0,0,0,7,2.69,14.81,14.81,0,0,0,7.73-1.39,17.87,17.87,0,0,0,6.87-5.87A17.31,17.31,0,0,0,537,753.27Z"/><path class="cls-2" d="M104.75,907.73a23,23,0,0,1,5.9-9.44,24.21,24.21,0,0,1,11.56-6.61,24.64,24.64,0,0,1,13.47.6,32,32,0,0,1,12.94,8.2,32.66,32.66,0,0,1,8.28,13,25.34,25.34,0,0,1,.74,13.62,23.86,23.86,0,0,1-6.54,11.63,23.05,23.05,0,0,1-9.41,5.94,21.11,21.11,0,0,1-9.75.77l5.58,5.59-9.9,9.9L75.3,908.61l9.9-9.9,18.88,18.88A19.93,19.93,0,0,1,104.75,907.73Zm26.2-1.8a14.2,14.2,0,0,0-7.75-.11,14.62,14.62,0,0,0-6.47,3.78,14,14,0,0,0-3.67,6.44,14.34,14.34,0,0,0,.17,7.81,19.5,19.5,0,0,0,12.31,12.31,14.44,14.44,0,0,0,7.81.17,14.12,14.12,0,0,0,10.15-10.21,14.89,14.89,0,0,0-.22-7.85,17.81,17.81,0,0,0-4.77-7.68A17.43,17.43,0,0,0,131,905.93Z"/><text class="cls-1" transform="translate(456.91 1016.36)">ene.</text><text class="cls-1" transform="translate(676.27 1013.65)">mol</text><path class="cls-2" d="M221.6,928.88,182.09,920a13.76,13.76,0,0,0,2,10.1,13,13,0,0,0,8.13,5.31q7.6,1.73,12.3-4.09l14.73,3.32a25.2,25.2,0,0,1-11.87,10.8Q199.66,949,190,946.77a29,29,0,0,1-13.22-6.62,25,25,0,0,1-7.45-12,30.84,30.84,0,0,1-.16-15.42,31.39,31.39,0,0,1,6.73-14,24.51,24.51,0,0,1,11.76-7.6,31.53,31.53,0,0,1,28,6.2A23.94,23.94,0,0,1,223,908.94a29.16,29.16,0,0,1,.21,14.76A33.6,33.6,0,0,1,221.6,928.88Zm-11.69-12.27a11.12,11.12,0,0,0-1.91-9.3,13.77,13.77,0,0,0-8.35-5.21,12.66,12.66,0,0,0-9.23,1.15,13.8,13.8,0,0,0-6.17,7.58Z"/><path class="cls-2" d="M127.51,793.27,93.28,814.91a13.72,13.72,0,0,0,8.57,5.7,12.91,12.91,0,0,0,9.51-2q6.6-4.15,5.8-11.59L129.93,799a25.33,25.33,0,0,1-.75,16q-3,8-11.37,13.28a28.88,28.88,0,0,1-14,4.67,25,25,0,0,1-13.74-3.21A30.71,30.71,0,0,1,79,819a31.33,31.33,0,0,1-5.11-14.63,24.47,24.47,0,0,1,2.94-13.69A31.49,31.49,0,0,1,101,775.23a23.88,23.88,0,0,1,13.36,3A29.15,29.15,0,0,1,125,788.49,33.23,33.23,0,0,1,127.51,793.27Zm-16.94-.41a11.11,11.11,0,0,0-7.92-5.23,13.91,13.91,0,0,0-9.6,2.22,12.74,12.74,0,0,0-5.71,7.34,13.86,13.86,0,0,0,1,9.72Z"/><path class="cls-2" d="M421.53,790.85,387.3,812.49a13.72,13.72,0,0,0,8.57,5.7,13,13,0,0,0,9.51-2q6.6-4.17,5.8-11.6L424,796.54a25.19,25.19,0,0,1-.75,16q-3,8-11.37,13.28a28.84,28.84,0,0,1-14,4.67,25,25,0,0,1-13.74-3.21,30.71,30.71,0,0,1-11-10.78,31.44,31.44,0,0,1-5.11-14.63,24.48,24.48,0,0,1,2.94-13.69A31.49,31.49,0,0,1,395,772.81a24,24,0,0,1,13.36,3A29.25,29.25,0,0,1,419,786.07,34.12,34.12,0,0,1,421.53,790.85Zm-16.94-.41a11.11,11.11,0,0,0-7.92-5.23,13.83,13.83,0,0,0-9.59,2.23,12.69,12.69,0,0,0-5.72,7.33,13.88,13.88,0,0,0,1,9.73Z"/><path class="cls-2" d="M649.59,884.6l31.73-25.17a13.74,13.74,0,0,0-9.13-4.75,12.91,12.91,0,0,0-9.25,3q-6.11,4.85-4.53,12.15l-11.82,9.38a25.13,25.13,0,0,1-1-16q2.11-8.27,9.88-14.42A28.88,28.88,0,0,1,669,842.63a24.91,24.91,0,0,1,14,1.72,30.7,30.7,0,0,1,12.1,9.54,31.35,31.35,0,0,1,6.65,14,24.46,24.46,0,0,1-1.46,13.92,31.43,31.43,0,0,1-22.38,17.89,24,24,0,0,1-13.6-1.53,29.22,29.22,0,0,1-11.62-9.1A32.45,32.45,0,0,1,649.59,884.6Zm16.89-1.4a11.09,11.09,0,0,0,8.43,4.35,13.76,13.76,0,0,0,9.31-3.23,12.71,12.71,0,0,0,4.9-7.91,13.88,13.88,0,0,0-2-9.56Z"/><path class="cls-2" d="M585.38,796.11l-34.23,21.64a13.78,13.78,0,0,0,8.57,5.7,13,13,0,0,0,9.51-2q6.6-4.17,5.8-11.59l12.76-8.07a25.26,25.26,0,0,1-.74,16q-3,8-11.37,13.28a28.86,28.86,0,0,1-14,4.66,24.87,24.87,0,0,1-13.74-3.2,30.8,30.8,0,0,1-11-10.78,31.37,31.37,0,0,1-5.11-14.64,24.45,24.45,0,0,1,2.94-13.68,31.49,31.49,0,0,1,24.16-15.4,24,24,0,0,1,13.36,3,29.18,29.18,0,0,1,10.58,10.29A32.71,32.71,0,0,1,585.38,796.11Zm-16.94-.41a11.11,11.11,0,0,0-7.92-5.23,13.81,13.81,0,0,0-9.6,2.22,12.74,12.74,0,0,0-5.71,7.34,13.81,13.81,0,0,0,1,9.72Z"/><path class="cls-2" d="M233.89,825.55l.74-40.5a13.8,13.8,0,0,0-9.48,4,12.94,12.94,0,0,0-3.56,9q-.14,7.8,6.5,11.22l-.28,15.1a25.3,25.3,0,0,1-13-9.44q-5-6.9-4.84-16.79a28.76,28.76,0,0,1,3.81-14.29A24.92,24.92,0,0,1,224,774.21a30.83,30.83,0,0,1,15.07-3.28,31.44,31.44,0,0,1,15,3.77,24.5,24.5,0,0,1,9.82,10,31.44,31.44,0,0,1-.42,28.65,24,24,0,0,1-9.82,9.53A29.26,29.26,0,0,1,239.28,826,33.15,33.15,0,0,1,233.89,825.55Zm9.66-13.93a11.12,11.12,0,0,0,8.72-3.74,13.87,13.87,0,0,0,3.42-9.24,12.71,12.71,0,0,0-3-8.81,13.83,13.83,0,0,0-8.66-4.51Z"/><path class="cls-2" d="M295.47,898.89q2.49,8.37-2.71,18.29L277.66,946l-12.39-6.51,14.21-27.1q3.07-5.83,1.8-10.52a11.7,11.7,0,0,0-6.32-7.32q-5.15-2.7-9.75-1.11t-7.69,7.43l-14.21,27.1-12.4-6.51,25.74-49,12.4,6.5L265.84,885a19.28,19.28,0,0,1,9-1.68,22.18,22.18,0,0,1,9.41,2.62Q293,890.53,295.47,898.89Z"/><path class="cls-2" d="M644,828.18q2.49,8.37-2.71,18.29l-15.1,28.78-12.4-6.51L628,841.65c2.05-3.9,2.64-7.41,1.8-10.52a11.72,11.72,0,0,0-6.32-7.33q-5.14-2.7-9.76-1.11t-7.68,7.43l-14.22,27.1-12.39-6.51,25.74-49.05,12.39,6.5-3.2,6.11a19.39,19.39,0,0,1,9-1.68,22.14,22.14,0,0,1,9.41,2.62Q641.53,819.82,644,828.18Z"/><path class="cls-2" d="M484.46,775.58q8.42-2.31,18.22,3.13l28.42,15.76-6.79,12.24-26.76-14.84q-5.78-3.2-10.48-2A11.74,11.74,0,0,0,479.6,796q-2.81,5.07-1.33,9.73t7.25,7.85l26.76,14.84-6.79,12.24L457,813.77l6.79-12.24,6,3.35a19.31,19.31,0,0,1-1.48-9,22.27,22.27,0,0,1,2.84-9.34Q476,777.89,484.46,775.58Z"/><path class="cls-2" d="M203.6,788.05q2.49,8.37-2.71,18.29l-15.1,28.78-12.4-6.51,14.22-27.09c2-3.9,2.64-7.4,1.8-10.52a11.72,11.72,0,0,0-6.32-7.33q-5.15-2.68-9.76-1.11T165.65,790l-14.22,27.09L139,810.59l25.74-49.06,12.4,6.51L174,774.15a19.41,19.41,0,0,1,9-1.69,22.16,22.16,0,0,1,9.4,2.63Q201.11,779.68,203.6,788.05Z"/><path class="cls-2" d="M304.22,795.09q-1.92-8.52,4-18.06l17.05-27.66,11.91,7.34-16.05,26q-3.46,5.63-2.51,10.37a11.69,11.69,0,0,0,5.8,7.75q4.94,3,9.65,1.78t8.17-6.89l16.06-26,11.92,7.34-29.07,47.17-11.92-7.35,3.62-5.87a19.21,19.21,0,0,1-9.05,1.06,22.26,22.26,0,0,1-9.2-3.26Q306.13,803.61,304.22,795.09Z"/><path class="cls-2" d="M388.21,896.52q7.16,5.18,8.94,16.24l5.16,32.09-13.82,2.22-4.86-30.21q-1-6.42-4.84-9.3c-2.54-1.93-5.68-2.58-9.43-2a12,12,0,0,0-8.39,4.84q-2.76,3.95-1.73,10.36L364.1,951l-13.82,2.22L345.42,923q-1-6.42-4.84-9.3a11.88,11.88,0,0,0-9.43-2q-5.73.93-8.49,4.86t-1.73,10.36l4.86,30.21L312,959.37l-8.8-54.69L317,902.45l1.06,6.62a18.67,18.67,0,0,1,6-6.54,21.7,21.7,0,0,1,8.91-3.45,24,24,0,0,1,11.89.87,19.3,19.3,0,0,1,9,6.49,20.05,20.05,0,0,1,6.52-8.84A22.38,22.38,0,0,1,371,893Q381,891.34,388.21,896.52Z"/><path class="cls-2" d="M531,864.88q2.57,8.46-2.71,18.34L513,911.88l-12.34-6.59,14.41-27q3.07-5.73,1.78-10.33a11.87,11.87,0,0,0-6.31-7.29,12,12,0,0,0-9.61-1.22q-4.57,1.47-7.64,7.2l-14.42,27-12.35-6.6,14.42-27q3.06-5.73,1.78-10.33a11.9,11.9,0,0,0-6.32-7.28q-5.12-2.73-9.69-1.27c-3.06,1-5.6,3.38-7.65,7.2l-14.41,27-12.35-6.6,26.1-48.86,12.35,6.59-3.16,5.91a18.61,18.61,0,0,1,8.72-1.57,21.72,21.72,0,0,1,9.19,2.64,24,24,0,0,1,8.94,7.89A19.37,19.37,0,0,1,497.72,852a20,20,0,0,1,10.55-3.1,22.27,22.27,0,0,1,11.2,2.7Q528.47,856.42,531,864.88Z"/><path class="cls-2" d="M352.23,852.69q1.39,8.71-5.16,17.8l-19,26.34-11.35-8.2,17.93-24.8q3.81-5.26,3.15-10t-5.27-8.07a12,12,0,0,0-9.36-2.5q-4.72.82-8.54,6.1l-17.93,24.8L285.32,866l17.93-24.8c2.53-3.51,3.59-6.84,3.15-10s-2.19-5.84-5.27-8.07-6.28-3.12-9.44-2.57-6,2.59-8.54,6.11l-17.93,24.79-11.35-8.2,32.46-44.89,11.35,8.2L293.75,812a18.6,18.6,0,0,1,8.86-.39,21.7,21.7,0,0,1,8.74,3.86,24,24,0,0,1,7.79,9,19.2,19.2,0,0,1,1.81,11,20.07,20.07,0,0,1,10.87-1.64A22.5,22.5,0,0,1,342.56,838Q350.83,844,352.23,852.69Z"/><path class="cls-2" d="M53.42,660.5q-2.55-8.46,2.75-18.33l15.38-28.63,12.33,6.62-14.48,27q-3.08,5.73-1.8,10.33a11.89,11.89,0,0,0,6.3,7.3A12,12,0,0,0,83.5,666q4.59-1.46,7.66-7.18l14.48-27L118,638.47l-14.48,27q-3.08,5.73-1.8,10.33t6.3,7.3q5.12,2.75,9.69,1.29t7.66-7.18l14.48-27,12.33,6.62-26.21,48.81L113.61,699l3.17-5.91a18.52,18.52,0,0,1-8.73,1.56A21.71,21.71,0,0,1,98.87,692,24.08,24.08,0,0,1,90,684.1a19.33,19.33,0,0,1-3.25-10.66,20,20,0,0,1-10.55,3.07A22.37,22.37,0,0,1,65,673.79Q56,669,53.42,660.5Z"/><path class="cls-2" d="M781.89,915.33l-68.84-27.16,5.14-13L787,902.31Z"/><path class="cls-2" d="M667.05,916.61v74h-14v-74Z"/><path class="cls-2" d="M245.58,667.14v74h-14v-74Z"/><path class="cls-2" d="M82.3,691.61v74h-14v-74Z"/><path class="cls-2" d="M463.38,788.62l-35.89,64.72-12.24-6.79,35.88-64.71Z"/><path class="cls-2" d="M161.64,817.87l36.57,64.33L186,889.12l-36.57-64.33Z"/><text class="cls-1" transform="translate(944.21 1015.8)">o</text><path class="cls-2" d="M209.74,885.57a25.43,25.43,0,0,1-10.05-10.05,30,30,0,0,1-3.65-15,29.51,29.51,0,0,1,3.75-15,26.06,26.06,0,0,1,10.25-10,31.39,31.39,0,0,1,29,0,26.13,26.13,0,0,1,10.25,10,29.51,29.51,0,0,1,3.75,15,28.92,28.92,0,0,1-3.85,15,26.63,26.63,0,0,1-10.4,10.05,30.21,30.21,0,0,1-14.65,3.55A29.11,29.11,0,0,1,209.74,885.57Zm21.55-10.5a13.47,13.47,0,0,0,5.35-5.55,18.7,18.7,0,0,0,2-9q0-7.89-4.15-12.15a13.66,13.66,0,0,0-10.15-4.25,13.33,13.33,0,0,0-10.05,4.25q-4,4.26-4,12.15t3.95,12.15a13,13,0,0,0,9.95,4.25A14.52,14.52,0,0,0,231.29,875.07Z"/><path class="cls-2" d="M267.39,778a25.69,25.69,0,0,1-10.05-10.05,30.18,30.18,0,0,1-3.65-15,29.46,29.46,0,0,1,3.75-15,26,26,0,0,1,10.25-10,31.39,31.39,0,0,1,29,0,25.93,25.93,0,0,1,10.25,10,29.46,29.46,0,0,1,3.75,15,28.88,28.88,0,0,1-3.85,15A26.64,26.64,0,0,1,296.44,778a30.3,30.3,0,0,1-14.65,3.55A29.27,29.27,0,0,1,267.39,778Zm21.55-10.5a13.46,13.46,0,0,0,5.35-5.55,18.64,18.64,0,0,0,2-9q0-7.9-4.15-12.15A13.61,13.61,0,0,0,282,736.5a13.3,13.3,0,0,0-10.05,4.25q-4.05,4.25-4.05,12.15t3.95,12.15a13,13,0,0,0,10,4.25A14.57,14.57,0,0,0,288.94,767.45Z"/><path class="cls-2" d="M545.44,916.06a25.56,25.56,0,0,1-10.05-10,30.13,30.13,0,0,1-3.65-15,29.46,29.46,0,0,1,3.75-15,26.13,26.13,0,0,1,10.25-10,31.39,31.39,0,0,1,29,0A26.13,26.13,0,0,1,585,876a29.46,29.46,0,0,1,3.75,15,28.82,28.82,0,0,1-3.85,15,26.71,26.71,0,0,1-10.4,10,30.21,30.21,0,0,1-14.65,3.55A29.16,29.16,0,0,1,545.44,916.06ZM567,905.56a13.41,13.41,0,0,0,5.35-5.55,18.76,18.76,0,0,0,2-9q0-7.9-4.15-12.15A13.66,13.66,0,0,0,560,874.61a13.33,13.33,0,0,0-10,4.25q-4.05,4.25-4,12.15t3.95,12.15a13,13,0,0,0,10,4.25A14.6,14.6,0,0,0,567,905.56Z"/><path class="cls-2" d="M698.25,950.64a25.56,25.56,0,0,1-10-10,30.13,30.13,0,0,1-3.65-15,29.51,29.51,0,0,1,3.75-15,26.13,26.13,0,0,1,10.25-10.05,31.39,31.39,0,0,1,29,0,26.06,26.06,0,0,1,10.25,10.05,29.51,29.51,0,0,1,3.75,15,28.82,28.82,0,0,1-3.85,15,26.5,26.5,0,0,1-10.4,10,30.19,30.19,0,0,1-14.65,3.55A29.16,29.16,0,0,1,698.25,950.64Zm21.55-10.5a13.34,13.34,0,0,0,5.35-5.55,18.59,18.59,0,0,0,2-9q0-7.89-4.15-12.15a13.64,13.64,0,0,0-10.15-4.25,13.33,13.33,0,0,0-10.05,4.25q-4,4.26-4,12.15t4,12.15a13,13,0,0,0,9.95,4.25A14.46,14.46,0,0,0,719.8,940.14Z"/><path class="cls-2" d="M181.24,757.79a25.43,25.43,0,0,1-10.05-10,30,30,0,0,1-3.65-15,29.51,29.51,0,0,1,3.75-15,26.06,26.06,0,0,1,10.25-10,31.39,31.39,0,0,1,29,0,26.13,26.13,0,0,1,10.25,10,29.51,29.51,0,0,1,3.75,15,28.92,28.92,0,0,1-3.85,15,26.63,26.63,0,0,1-10.4,10,30.21,30.21,0,0,1-14.65,3.55A29.11,29.11,0,0,1,181.24,757.79Zm21.55-10.5a13.47,13.47,0,0,0,5.35-5.55,18.7,18.7,0,0,0,2-9q0-7.89-4.15-12.15a13.66,13.66,0,0,0-10.15-4.25,13.33,13.33,0,0,0-10.05,4.25q-4,4.26-4,12.15t3.95,12.15a13,13,0,0,0,9.95,4.25A14.52,14.52,0,0,0,202.79,747.29Z"/><path class="cls-2" d="M73.47,889a25.63,25.63,0,0,1-10-10,30.18,30.18,0,0,1-3.65-15,29.46,29.46,0,0,1,3.75-15,26,26,0,0,1,10.25-10.05,31.39,31.39,0,0,1,29,0A26,26,0,0,1,113,849a29.46,29.46,0,0,1,3.75,15,28.88,28.88,0,0,1-3.85,15,26.71,26.71,0,0,1-10.4,10,30.3,30.3,0,0,1-14.65,3.55A29.27,29.27,0,0,1,73.47,889ZM95,878.53a13.53,13.53,0,0,0,5.35-5.55,18.64,18.64,0,0,0,2-9q0-7.9-4.15-12.15a13.61,13.61,0,0,0-10.15-4.25,13.3,13.3,0,0,0-10,4.25q-4,4.24-4,12.15t4,12.15a13,13,0,0,0,10,4.25A14.57,14.57,0,0,0,95,878.53Z"/><path class="cls-2" d="M370.56,887.46a25.5,25.5,0,0,1-10.05-10.05,30,30,0,0,1-3.65-15,29.46,29.46,0,0,1,3.75-15,26.06,26.06,0,0,1,10.25-10,31.39,31.39,0,0,1,29,0,26.13,26.13,0,0,1,10.25,10,29.46,29.46,0,0,1,3.75,15,28.92,28.92,0,0,1-3.85,15,26.7,26.7,0,0,1-10.4,10.05A30.21,30.21,0,0,1,385,891,29.14,29.14,0,0,1,370.56,887.46ZM392.11,877a13.41,13.41,0,0,0,5.35-5.55,18.7,18.7,0,0,0,2-9c0-5.27-1.39-9.31-4.15-12.15A13.66,13.66,0,0,0,385.16,846a13.33,13.33,0,0,0-10.05,4.25c-2.7,2.84-4.05,6.88-4.05,12.15s1.32,9.32,3.95,12.15a13,13,0,0,0,9.95,4.25A14.49,14.49,0,0,0,392.11,877Z"/><path class="cls-2" d="M896.63,988.24h26.8a5.29,5.29,0,0,0,4.05-1.35c.83-.9,1.25-2.41,1.25-4.55v-6.5h11.8v8.8q0,17.7-17.2,17.7h-26.7v6.6h-11.5v-6.6h-13.7v-14.1h13.7v-12.4h11.5Z"/><path class="cls-2" d="M973.26,747.3h-26.8a5.32,5.32,0,0,0-4.05,1.35c-.83.9-1.25,2.42-1.25,4.55v6.5h-11.8v-8.8q0-17.7,17.2-17.7h26.7v-6.6h11.5v6.6h13.7v14.1h-13.7v12.4h-11.5Z"/><path class="cls-2" d="M180.57,675.28h26.8a5.29,5.29,0,0,0,4-1.35c.83-.9,1.25-2.42,1.25-4.55v-6.5h11.8v8.8q0,17.7-17.2,17.7h-26.7V696h-11.5v-6.6h-13.7v-14.1h13.7v-12.4h11.5Z"/><path class="cls-2" d="M504.19,937.47l26.8.5a5.28,5.28,0,0,0,4.07-1.27c.85-.89,1.3-2.39,1.34-4.53l.12-6.5,11.8.22-.17,8.8q-.33,17.7-17.52,17.38l-26.7-.5-.12,6.6-11.5-.21.12-6.6-13.69-.26L479,937l13.7.25.23-12.4,11.49.22Z"/><path class="cls-2" d="M796.71,942.36h-26.8a5.29,5.29,0,0,0-4,1.35c-.84.9-1.25,2.42-1.25,4.55v6.5h-11.8V946q0-17.7,17.2-17.7h26.7v-6.6h11.5v6.6h13.7v14.1h-13.7v12.4h-11.5Z"/><path class="cls-2" d="M147.52,881.25l-12.46-23.73a5.31,5.31,0,0,0-3.08-2.95c-1.19-.32-2.72,0-4.61,1l-5.75,3-5.49-10.45,7.79-4.09q15.67-8.23,23.67,7L160,874.69l5.85-3.07,5.34,10.19-5.84,3.06L171.72,897l-12.48,6.56-6.37-12.13-11,5.77L136.54,887Z"/><path class="cls-2" d="M424.41,600.1A23,23,0,0,1,427,589.26a24.32,24.32,0,0,1,8.83-10,24.66,24.66,0,0,1,12.95-3.75,32,32,0,0,1,14.89,3.61,32.6,32.6,0,0,1,12,9.67,25.18,25.18,0,0,1,5.07,12.65,23.61,23.61,0,0,1-2.46,13.11,22.94,22.94,0,0,1-7,8.65,21,21,0,0,1-9,3.87l7.08,3.5-6.19,12.55L396.8,610.39l6.2-12.55,23.94,11.82A20.06,20.06,0,0,1,424.41,600.1ZM448.64,590a14.25,14.25,0,0,0-7.37,2.39,14.47,14.47,0,0,0-4.91,5.66,14,14,0,0,0-1.42,7.27,14.44,14.44,0,0,0,2.68,7.34,19.5,19.5,0,0,0,15.6,7.71,14.59,14.59,0,0,0,7.46-2.34,14,14,0,0,0,4.91-5.55,13.87,13.87,0,0,0,1.42-7.39,14.81,14.81,0,0,0-2.72-7.36,18,18,0,0,0-7-5.74A17.44,17.44,0,0,0,448.64,590Z"/><path class="cls-2" d="M792.3,816.84a22.83,22.83,0,0,1-9.4-6,24.17,24.17,0,0,1-6.53-11.61,24.64,24.64,0,0,1,.69-13.46,32,32,0,0,1,8.3-12.88,32.61,32.61,0,0,1,13.07-8.19,25.21,25.21,0,0,1,13.62-.64,23.65,23.65,0,0,1,11.58,6.62,22.94,22.94,0,0,1,5.87,9.45,21,21,0,0,1,.71,9.76l5.63-5.54,9.83,10L793,846.3l-9.83-10,19-18.75A19.93,19.93,0,0,1,792.3,816.84Zm-1.62-26.21a14.08,14.08,0,0,0-.16,7.74,14.43,14.43,0,0,0,3.73,6.5,14,14,0,0,0,6.41,3.72,14.46,14.46,0,0,0,7.82-.12,19.53,19.53,0,0,0,12.39-12.21,14.49,14.49,0,0,0,.23-7.82A14.11,14.11,0,0,0,811,778.22a14.88,14.88,0,0,0-7.85.16,17.89,17.89,0,0,0-7.7,4.72A17.29,17.29,0,0,0,790.68,790.63Z"/><path class="cls-2" d="M345.08,732.18a23,23,0,0,1-10.15-4.59,24.23,24.23,0,0,1-8.1-10.57,24.57,24.57,0,0,1-1.21-13.43A32.05,32.05,0,0,1,332,689.67a32.54,32.54,0,0,1,11.78-9.94,25.17,25.17,0,0,1,13.39-2.57,23.85,23.85,0,0,1,12.41,4.92,23,23,0,0,1,7.14,8.53,21,21,0,0,1,2.08,9.56l4.79-6.28,11.14,8.48L349.9,761.24l-11.13-8.48,16.17-21.24A20,20,0,0,1,345.08,732.18Zm-5.3-25.72a14.14,14.14,0,0,0,.93,7.68,14.51,14.51,0,0,0,4.62,5.91,14,14,0,0,0,6.87,2.78,14.39,14.39,0,0,0,7.71-1.23,19.42,19.42,0,0,0,10.55-13.84,14.41,14.41,0,0,0-.88-7.76,14.08,14.08,0,0,0-11.48-8.69,14.9,14.9,0,0,0-7.75,1.26,18,18,0,0,0-7,5.76A17.3,17.3,0,0,0,339.78,706.46Z"/><path class="cls-2" d="M812.24,744.53l34.57-21.1a13.78,13.78,0,0,0-8.49-5.83,12.91,12.91,0,0,0-9.53,1.84q-6.66,4-6,11.5l-12.89,7.86a25.24,25.24,0,0,1,1-16q3.14-7.95,11.58-13.1a28.93,28.93,0,0,1,14.1-4.45,25,25,0,0,1,13.68,3.43,30.76,30.76,0,0,1,10.85,11A31.36,31.36,0,0,1,866,734.33,24.36,24.36,0,0,1,862.84,748a29.44,29.44,0,0,1-10.55,10.55A29.13,29.13,0,0,1,838.44,763a23.88,23.88,0,0,1-13.31-3.18,29.13,29.13,0,0,1-10.42-10.45A32.52,32.52,0,0,1,812.24,744.53Zm16.93.68a11.08,11.08,0,0,0,7.83,5.35,13.83,13.83,0,0,0,9.64-2.07,12.67,12.67,0,0,0,5.82-7.25,13.81,13.81,0,0,0-.84-9.73Z"/><path class="cls-2" d="M889.48,868l34.57-21.1a13.74,13.74,0,0,0-8.48-5.83,13,13,0,0,0-9.54,1.83q-6.66,4.07-6,11.51l-12.89,7.86a25.28,25.28,0,0,1,1-16q3.12-7.93,11.57-13.09a28.93,28.93,0,0,1,14.1-4.45,25.06,25.06,0,0,1,13.68,3.42,30.8,30.8,0,0,1,10.85,11,31.49,31.49,0,0,1,4.88,14.71,24.45,24.45,0,0,1-3.16,13.64A29.33,29.33,0,0,1,929.53,882a29,29,0,0,1-13.85,4.47,23.88,23.88,0,0,1-13.31-3.18A29.21,29.21,0,0,1,892,872.84,34,34,0,0,1,889.48,868Zm16.93.68a11.1,11.1,0,0,0,7.84,5.35,13.81,13.81,0,0,0,9.63-2.07,12.73,12.73,0,0,0,5.83-7.25,13.87,13.87,0,0,0-.85-9.73Z"/><path class="cls-2" d="M425.85,756.18l34.57-21.1a13.8,13.8,0,0,0-8.48-5.84,13,13,0,0,0-9.54,1.84q-6.66,4.06-6,11.5l-12.89,7.87a25.27,25.27,0,0,1,1-16q3.12-7.93,11.57-13.09a28.82,28.82,0,0,1,14.1-4.45,24.89,24.89,0,0,1,13.68,3.42,30.8,30.8,0,0,1,10.85,11A31.45,31.45,0,0,1,479.61,746a24.47,24.47,0,0,1-3.16,13.64,31.46,31.46,0,0,1-24.4,15,24,24,0,0,1-13.31-3.18A29.24,29.24,0,0,1,428.32,761,33.44,33.44,0,0,1,425.85,756.18Zm16.93.67a11.12,11.12,0,0,0,7.84,5.36,13.81,13.81,0,0,0,9.63-2.07,12.76,12.76,0,0,0,5.83-7.25,13.9,13.9,0,0,0-.85-9.74Z"/><path class="cls-2" d="M211.22,638.58l39.54-8.76a13.79,13.79,0,0,0-6.14-8.27A12.93,12.93,0,0,0,235,620.2q-7.6,1.69-9.38,8.94l-14.74,3.27A25.22,25.22,0,0,1,217,617.58q5.53-6.5,15.19-8.64a29,29,0,0,1,14.78.36A24.93,24.93,0,0,1,258.82,617a30.69,30.69,0,0,1,6.71,13.88,31.34,31.34,0,0,1-.15,15.49,24.39,24.39,0,0,1-7.4,11.89,31.52,31.52,0,0,1-28,6.3,23.93,23.93,0,0,1-11.56-7.32A29.32,29.32,0,0,1,212,643.94,33.81,33.81,0,0,1,211.22,638.58Zm15.8,6.13a11.13,11.13,0,0,0,5.68,7.6,13.81,13.81,0,0,0,9.78,1.16,12.68,12.68,0,0,0,7.86-5A13.86,13.86,0,0,0,252.7,639Z"/><path class="cls-2" d="M706.38,710.58,705,751.05a13.74,13.74,0,0,0,9.54-3.88,13,13,0,0,0,3.71-9q.25-7.8-6.32-11.33l.51-15.09a25.27,25.27,0,0,1,12.83,9.64q4.92,7,4.58,16.87a29,29,0,0,1-4,14.22,24.91,24.91,0,0,1-10.39,9.55,30.77,30.77,0,0,1-15.11,3,31.29,31.29,0,0,1-15-4A24.47,24.47,0,0,1,675.69,751a31.45,31.45,0,0,1,.87-28.64,24,24,0,0,1,10-9.37A29.31,29.31,0,0,1,701,710,33.39,33.39,0,0,1,706.38,710.58Zm-9.87,13.77a11.07,11.07,0,0,0-8.78,3.6,13.86,13.86,0,0,0-3.57,9.19A12.79,12.79,0,0,0,687,746a13.85,13.85,0,0,0,8.6,4.64Z"/><path class="cls-2" d="M569.47,656.57q-2.37-8.42,3-18.24L588,609.79l12.29,6.7-14.64,26.87q-3.17,5.79-2,10.49a11.67,11.67,0,0,0,6.2,7.42q5.1,2.78,9.73,1.27t7.8-7.31l14.65-26.87,12.29,6.7L607.87,683.7l-12.3-6.7,3.31-6.06a19.28,19.28,0,0,1-9,1.54,22.09,22.09,0,0,1-9.36-2.77Q571.83,665,569.47,656.57Z"/><path class="cls-2" d="M916.14,769.39q6.65,5.67,7.69,16.81l3,32.36-13.94,1.3-2.83-30.47q-.62-6.57-4.22-9.8a11.68,11.68,0,0,0-9.29-2.71q-5.77.54-8.79,4.38t-2.39,10.42l2.82,30.47-13.94,1.29-5.11-55.16L883.08,767l.63,6.87a19.34,19.34,0,0,1,6.6-6.29,22.1,22.1,0,0,1,9.32-2.92Q909.49,763.73,916.14,769.39Z"/><path class="cls-2" d="M148.37,630.26q-2.37-8.4,3-18.24l15.56-28.53,12.29,6.7-14.65,26.87q-3.15,5.79-2,10.49a11.69,11.69,0,0,0,6.21,7.42q5.08,2.78,9.73,1.26c3.1-1,5.69-3.44,7.8-7.31L201,602.06l12.3,6.7L186.76,657.4l-12.29-6.7,3.3-6.06a19.21,19.21,0,0,1-9,1.54,22.18,22.18,0,0,1-9.37-2.77Q150.74,638.67,148.37,630.26Z"/><path class="cls-2" d="M294.55,712.14q-8.46,2.16-18.17-3.42l-28.17-16.21,7-12.14,26.52,15.27q5.71,3.29,10.44,2.2a11.72,11.72,0,0,0,7.57-6q2.89-5,1.48-9.7t-7.12-8l-26.52-15.26,7-12.13,48,27.63-7,12.13-6-3.44a19.35,19.35,0,0,1,1.33,9,22.11,22.11,0,0,1-3,9.3Q303,710,294.55,712.14Z"/><path class="cls-2" d="M736.08,748.54q-2.37-8.4,3-18.24l15.56-28.54,12.29,6.7-14.65,26.87q-3.15,5.8-2,10.49a11.71,11.71,0,0,0,6.21,7.43q5.09,2.78,9.73,1.26t7.8-7.31l14.64-26.87L801,727l-26.52,48.65L762.18,769l3.3-6.06a19.47,19.47,0,0,1-9,1.54,22.18,22.18,0,0,1-9.37-2.77Q738.45,756.95,736.08,748.54Z"/><path class="cls-2" d="M635.58,739.91q1.78,8.57-4.24,18L613.85,785.3l-11.8-7.53L618.51,752q3.56-5.57,2.68-10.34a11.69,11.69,0,0,0-5.67-7.83,12,12,0,0,0-9.63-1.93q-4.73,1.18-8.28,6.75l-16.46,25.8-11.8-7.53,29.8-46.7,11.8,7.53-3.71,5.81a19.44,19.44,0,0,1,9.07-.91,22.05,22.05,0,0,1,9.15,3.41Q633.8,731.37,635.58,739.91Z"/><path class="cls-2" d="M359.17,652.09q-2.43-8.51,3-18.29l15.76-28.42,12.25,6.79-14.85,26.76q-3.15,5.67-1.94,10.3a11.87,11.87,0,0,0,6.2,7.38,12,12,0,0,0,9.59,1.37q4.6-1.38,7.75-7.07l14.85-26.76L424,630.94,409.18,657.7q-3.17,5.68-1.94,10.3t6.19,7.38q5.07,2.82,9.68,1.42t7.75-7.07L445.71,643,458,649.76,431.08,698.2l-12.25-6.79,3.25-5.85a18.67,18.67,0,0,1-8.74,1.43,21.52,21.52,0,0,1-9.15-2.78,24.09,24.09,0,0,1-8.81-8,19.3,19.3,0,0,1-3.1-10.7,20.06,20.06,0,0,1-10.6,2.92,22.32,22.32,0,0,1-11.16-2.87Q361.61,660.58,359.17,652.09Z"/><path class="cls-2" d="M485.85,725q-8.85.09-16.84-7.75L445.8,694.47l9.81-10,21.85,21.42q4.64,4.56,9.41,4.61t8.77-4a12,12,0,0,0,3.87-8.88q-.12-4.8-4.76-9.35L472.9,666.84l9.8-10,21.85,21.42q4.63,4.54,9.42,4.61t8.76-4q4.07-4.14,3.94-9c-.07-3.21-1.66-6.32-4.76-9.36l-21.85-21.42,9.81-10,39.55,38.79-9.8,10-4.78-4.69a18.76,18.76,0,0,1-.94,8.82,21.64,21.64,0,0,1-5.12,8.07,24,24,0,0,1-10.08,6.36,19.38,19.38,0,0,1-11.14.15,20,20,0,0,1,0,11,22.25,22.25,0,0,1-5.73,10Q494.68,724.9,485.85,725Z"/><path class="cls-2" d="M884.22,878.46q2.41,8.5-3,18.28l-15.83,28.39-12.23-6.82L868,891.58q3.16-5.67,2-10.29t-6.18-7.4a12,12,0,0,0-9.58-1.4q-4.61,1.38-7.77,7.06l-14.91,26.73-12.23-6.82,14.91-26.73q3.16-5.67,2-10.29A11.86,11.86,0,0,0,830,855c-3.37-1.88-6.6-2.37-9.67-1.44s-5.66,3.27-7.77,7l-14.9,26.73-12.23-6.82,27-48.38L824.65,839l-3.26,5.86a18.42,18.42,0,0,1,8.74-1.42,21.65,21.65,0,0,1,9.14,2.8,24.05,24.05,0,0,1,8.8,8.06,19.25,19.25,0,0,1,3.07,10.7,20.08,20.08,0,0,1,10.61-2.9A22.28,22.28,0,0,1,872.9,865Q881.81,870,884.22,878.46Z"/><path class="cls-2" d="M692.19,849.22l1.17-74,14,.22-1.18,74Z"/><path class="cls-2" d="M850.17,846.9l1.17-74,14,.23-1.17,74Z"/><path class="cls-2" d="M371.9,757.19l36.91-64.14,12.13,7L384,764.17Z"/><path class="cls-2" d="M647.63,752.16l-35.56-64.9,12.28-6.73,35.55,64.9Z"/><path class="cls-2" d="M580.24,677a25.45,25.45,0,0,1,9.89,10.21,30,30,0,0,1,3.41,15.05,29.45,29.45,0,0,1-4,14.94,26,26,0,0,1-10.4,9.89,31.39,31.39,0,0,1-29-.46,26.13,26.13,0,0,1-10.09-10.21,29.5,29.5,0,0,1-3.51-15.06,28.82,28.82,0,0,1,4.09-14.94,26.66,26.66,0,0,1,10.55-9.88,30.31,30.31,0,0,1,14.71-3.32A29.18,29.18,0,0,1,580.24,677Zm-21.71,10.16a13.37,13.37,0,0,0-5.44,5.46,18.64,18.64,0,0,0-2.14,9q-.13,7.89,3.95,12.21A13.65,13.65,0,0,0,565,718.16a13.29,13.29,0,0,0,10.11-4.09q4.13-4.19,4.24-12.08c.09-5.27-1.17-9.34-3.75-12.21a13,13,0,0,0-9.89-4.41A14.51,14.51,0,0,0,558.53,687.11Z"/><path class="cls-2" d="M672.13,757.64A25.45,25.45,0,0,1,682,767.85a30,30,0,0,1,3.41,15,29.45,29.45,0,0,1-4,14.94,26,26,0,0,1-10.4,9.89,31.39,31.39,0,0,1-29-.46A26.13,26.13,0,0,1,632,797.06,29.5,29.5,0,0,1,628.44,782a28.85,28.85,0,0,1,4.09-14.94,26.66,26.66,0,0,1,10.55-9.88,30.31,30.31,0,0,1,14.71-3.32A29.18,29.18,0,0,1,672.13,757.64ZM650.42,767.8a13.37,13.37,0,0,0-5.44,5.46,18.66,18.66,0,0,0-2.14,9q-.14,7.89,3.95,12.21a13.65,13.65,0,0,0,10.09,4.41A13.29,13.29,0,0,0,667,794.76q4.13-4.18,4.24-12.08c.09-5.27-1.17-9.34-3.75-12.21a13,13,0,0,0-9.89-4.41A14.51,14.51,0,0,0,650.42,767.8Z"/><path class="cls-2" d="M345.58,600.69a25.55,25.55,0,0,1,9.89,10.2A30.16,30.16,0,0,1,358.88,626a29.47,29.47,0,0,1-4,14.94,26,26,0,0,1-10.4,9.89,31.39,31.39,0,0,1-29-.46,26.13,26.13,0,0,1-10.09-10.21,29.52,29.52,0,0,1-3.51-15.06A28.91,28.91,0,0,1,306,610.11a26.68,26.68,0,0,1,10.56-9.88,30.2,30.2,0,0,1,14.71-3.32A29.07,29.07,0,0,1,345.58,600.69Zm-21.72,10.15a13.43,13.43,0,0,0-5.43,5.47,18.64,18.64,0,0,0-2.14,9q-.14,7.89,3.95,12.21a13.61,13.61,0,0,0,10.08,4.41,13.33,13.33,0,0,0,10.12-4.09q4.11-4.18,4.24-12.08c.09-5.27-1.17-9.34-3.75-12.22a13,13,0,0,0-9.89-4.4A14.68,14.68,0,0,0,323.86,610.84Z"/><path class="cls-2" d="M758,779.15a25.62,25.62,0,0,1,9.88,10.21,30.06,30.06,0,0,1,3.42,15.06,29.5,29.5,0,0,1-4,14.94,26.1,26.1,0,0,1-10.41,9.88,31.37,31.37,0,0,1-29-.46,26,26,0,0,1-10.09-10.21,29.37,29.37,0,0,1-3.52-15.05,28.92,28.92,0,0,1,4.09-14.94,26.7,26.7,0,0,1,10.56-9.89,30.24,30.24,0,0,1,14.7-3.31A29.18,29.18,0,0,1,758,779.15Zm-21.72,10.16a13.51,13.51,0,0,0-5.44,5.47,18.74,18.74,0,0,0-2.14,9q-.12,7.9,4,12.22a13.69,13.69,0,0,0,10.08,4.41,13.35,13.35,0,0,0,10.12-4.09q4.11-4.18,4.24-12.09T753.3,792a13,13,0,0,0-9.88-4.41A14.55,14.55,0,0,0,736.24,789.31Z"/><path class="cls-2" d="M729.45,654.93a25.45,25.45,0,0,1,9.89,10.21,30.15,30.15,0,0,1,3.42,15.05,29.45,29.45,0,0,1-4,14.94A26.12,26.12,0,0,1,728.36,705a31.39,31.39,0,0,1-29-.46,26.2,26.2,0,0,1-10.09-10.21,29.52,29.52,0,0,1-3.51-15.06,28.92,28.92,0,0,1,4.09-14.94,26.61,26.61,0,0,1,10.56-9.88,30.25,30.25,0,0,1,14.7-3.32A29.15,29.15,0,0,1,729.45,654.93Zm-21.71,10.16a13.42,13.42,0,0,0-5.44,5.46,18.75,18.75,0,0,0-2.14,9q-.12,7.89,4,12.21a13.61,13.61,0,0,0,10.08,4.41,13.31,13.31,0,0,0,10.12-4.09q4.11-4.18,4.24-12.08t-3.76-12.21a13,13,0,0,0-9.88-4.41A14.55,14.55,0,0,0,707.74,665.09Z"/><path class="cls-2" d="M921.17,912a25.58,25.58,0,0,1,9.89,10.21,30.06,30.06,0,0,1,3.42,15.06,29.44,29.44,0,0,1-4,14.93,26.06,26.06,0,0,1-10.41,9.89,31.37,31.37,0,0,1-29-.46A26,26,0,0,1,881,951.39a29.38,29.38,0,0,1-3.52-15.06,28.91,28.91,0,0,1,4.09-14.93,26.7,26.7,0,0,1,10.56-9.89,30.13,30.13,0,0,1,14.7-3.31A29.12,29.12,0,0,1,921.17,912Zm-21.71,10.16a13.55,13.55,0,0,0-5.44,5.46,18.81,18.81,0,0,0-2.14,9q-.12,7.91,4,12.22a13.69,13.69,0,0,0,10.08,4.41A13.35,13.35,0,0,0,916,949.1c2.74-2.8,4.16-6.82,4.24-12.09s-1.17-9.34-3.76-12.21a13,13,0,0,0-9.88-4.41A14.55,14.55,0,0,0,899.46,922.13Z"/><path class="cls-2" d="M132.66,570.9a25.51,25.51,0,0,1,9.89,10.21A30.05,30.05,0,0,1,146,596.17a29.43,29.43,0,0,1-4,14.93A26.06,26.06,0,0,1,131.57,621a31.39,31.39,0,0,1-29-.46,26.07,26.07,0,0,1-10.09-10.21A29.48,29.48,0,0,1,89,595.26a28.91,28.91,0,0,1,4.09-14.93,26.57,26.57,0,0,1,10.56-9.89,30.25,30.25,0,0,1,14.7-3.32A29.26,29.26,0,0,1,132.66,570.9ZM111,581.06a13.55,13.55,0,0,0-5.44,5.46,18.81,18.81,0,0,0-2.14,9q-.12,7.9,4,12.22a13.69,13.69,0,0,0,10.08,4.41A13.35,13.35,0,0,0,127.52,608c2.75-2.8,4.16-6.82,4.25-12.09s-1.17-9.34-3.76-12.21a13,13,0,0,0-9.88-4.41A14.53,14.53,0,0,0,111,581.06Z"/><path class="cls-2" d="M757.32,861.67l-26.8-.43a5.28,5.28,0,0,0-4.07,1.29q-1.28,1.34-1.32,4.53l-.1,6.5-11.8-.19.14-8.8q.27-17.7,17.47-17.42l26.7.42.11-6.6,11.49.18-.1,6.6,13.7.22-.23,14.1-13.69-.22-.2,12.4-11.5-.18Z"/><path class="cls-2" d="M656.45,671.63l12.08,23.92a5.32,5.32,0,0,0,3,3c1.18.34,2.72,0,4.63-.94l5.8-2.93,5.32,10.53-7.85,4q-15.81,8-23.56-7.37l-12-23.83L638,681l-5.19-10.27,5.9-3L632.5,655.5l12.58-6.36,6.18,12.23,11.07-5.59L667.51,666Z"/></g></svg>