<svg id="Livello_1" data-name="Livello 1" xmlns="http://www.w3.org/2000/svg" viewBox="0 0 335 55"><title>claro_logo</title><path d="M62.07,31.11c-.08,5.67-4,13.52-19.79,13.52H40.2c-16.37,0-20.2-10-20.2-16.73V26.55C20,19.74,23.79,10,40.2,10h2.08c15.48,0,19.59,7.16,19.79,13.12H50.81c-.49-1.53-2.35-4.69-9.57-4.69-7.94,0-10,4.56-10,8.44v.58c0,3.66,2.12,8.66,10.06,8.66,7.61,0,9.23-3.56,9.6-5Z"/><path d="M118.56,35.89v8.74H87.49V11.08H98.27V35.89Z"/><path d="M153.16,38.82l-2.57,5.81H139.81l15.24-33.55h14.21L185,44.64H173.5l-2.62-5.82Zm3.29-7.4h11.14L162,18.88Z"/><path d="M240.38,33.14l6.92,11.5H234.72l-6.25-10.38h-8.86V44.64H208.83V11.08h23.63c11.55,0,14.84,4.65,14.84,11.23v.54C247.3,27.53,245.55,31.34,240.38,33.14Zm-20.77-6.91h11.95c3.38,0,4.55-1.39,4.55-3.51v-.14c0-2-1.17-3.43-4.55-3.43H219.61Z"/><path d="M315.12,26.55V27.9c0,7-4.06,16.73-20.88,16.73h-2c-16.78,0-20.89-9.69-20.89-16.73V26.55c0-7.13,4.11-16.55,20.89-16.55h2C311,10,315.12,19.42,315.12,26.55Zm-21.87-8.16c-9,0-10.69,4.87-10.69,8.52v.59c0,3.65,1.89,8.66,10.69,8.66s10.64-5,10.64-8.66v-.59C303.89,23.26,302.17,18.39,293.25,18.39Z"/></svg>